Patient4_TMGait_0pt6_01_left_45_GRF.mot
version=1
nRows=32
nColumns=19
inDegrees=no
endheader
time	F1x	F1y	F1z	M1x	M1y	M1z	F2x	F2y	F2z	M2x	M2y	M2z	EC1x	EC1y	EC1z	EC2x	EC2y	EC2z
54.69	14.7127	-6.9505	-4.6692	2.7082	9.2395	-19.1809	-19.5391	726.3683	-61.588	302.9262	74.3203	739.873	-0.0592	0.0182	-0.0073	-0.0462	0.0165	0.9585
54.7029	9.8609	-3.6356	-3.0639	1.4913	6.1484	-11.8404	-18.5407	725.6808	-57.2543	302.7833	69.0253	735.7242	-0.0592	0.0182	-0.0073	-0.0462	0.0165	0.9585
54.7159	5.7551	-0.81976	-1.7249	0.44449	3.5344	-5.5985	-16.9565	725.903	-53.1334	303.115	63.6798	731.6893	-0.0592	0.0182	-0.0073	-0.0462	0.0165	0.9585
54.7288	2.6032	1.3593	-0.72225	-0.37176	1.5447	-0.77047	-14.8484	727.5409	-49.5151	304.1103	58.6203	728.4239	-0.0592	0.0182	-0.0073	-0.0462	0.0165	0.9585
54.7417	0.41987	2.9028	-0.04017	-0.95356	0.17192	2.6301	-12.3349	731.0004	-46.5788	305.8959	54.0815	726.4995	-0.0592	0.0182	-0.0073	-0.0462	0.0165	0.9585
54.7546	-0.94753	3.8991	0.37134	-1.3314	-0.68039	4.8073	-9.5551	736.4692	-44.4031	308.4961	50.1983	726.2693	-0.0592	0.0182	-0.0073	-0.0462	0.0165	0.9585
54.7676	-1.6938	4.4456	0.57975	-1.5407	-1.1404	6.0023	-6.6221	743.8216	-43.0305	311.8027	47.0552	727.7512	-0.0592	0.0182	-0.0073	-0.0462	0.0165	0.9585
54.7805	-2.008	4.6251	0.65896	-1.6121	-1.3411	6.434	-3.6422	752.6187	-42.4308	315.5835	44.6525	730.6322	-0.0592	0.0182	-0.0073	-0.0462	0.0165	0.9585
54.7934	-2.0832	4.4998	0.66629	-1.5667	-1.3982	6.3006	-0.68033	762.1362	-42.5302	319.5014	42.9339	734.2852	-0.0592	0.0182	-0.0073	-0.0462	0.0165	0.9585
54.8064	-2.025	4.0648	0.65788	-1.4051	-1.4016	5.6739	2.2456	771.4684	-43.1916	323.1608	41.7657	737.8946	-0.0592	0.0182	-0.0073	-0.0462	0.0165	0.9585
54.8193	-1.9427	3.3065	0.66407	-1.1221	-1.4109	4.6214	5.1308	779.6375	-44.2613	326.1509	40.9956	740.5769	-0.0592	0.0182	-0.0073	-0.0462	0.0165	0.9585
54.8322	-1.8451	2.1554	0.70978	-0.69541	-1.4516	3.1	7.9702	785.7123	-45.5585	328.0971	40.446	741.4784	-0.0592	0.0182	-0.0073	-0.0462	0.0165	0.9585
54.8451	-1.7461	0.56424	0.78697	-0.10694	-1.5157	1.1024	10.7624	789.0187	-46.923	328.7374	39.9621	739.9931	-0.0592	0.0182	-0.0073	-0.0462	0.0165	0.9585
54.8581	-1.5894	-1.4728	0.87621	0.64446	-1.5622	-1.3667	13.511	789.2206	-48.2186	327.9585	39.4193	735.8294	-0.0592	0.0182	-0.0073	-0.0462	0.0165	0.9585
54.871	-1.3007	-3.8509	0.93904	1.5193	-1.5179	-4.1864	16.1662	786.3496	-49.4058	325.7975	38.8036	729.0567	-0.0592	0.0182	-0.0073	-0.0462	0.0165	0.9585
54.8839	-0.78468	-6.2795	0.91604	2.4092	-1.283	-7.0295	18.6918	780.7993	-50.502	322.4411	38.1577	720.0622	-0.0592	0.0182	-0.0073	-0.0462	0.0165	0.9585
54.8969	0.085696	-8.2161	0.73269	3.1098	-0.73295	-9.2989	21.0287	773.3016	-51.5985	318.2112	37.5982	709.5421	-0.0592	0.0182	-0.0073	-0.0462	0.0165	0.9585
54.9098	1.3958	-8.7525	0.28555	3.2852	0.28052	-9.9536	23.1617	764.7702	-52.7644	313.5093	37.2057	698.3204	-0.0592	0.0182	-0.0073	-0.0462	0.0165	0.9585
54.9227	3.2253	-6.5963	-0.54415	2.4593	1.919	-7.5287	25.1167	756.1127	-54.037	308.7361	37.0187	687.1967	-0.0592	0.0182	-0.0073	-0.0462	0.0165	0.9585
54.9356	5.5224	-0.0036209	-1.8749	-0.0051162	4.3002	-0.010658	26.9683	747.9907	-55.3621	304.1947	36.9694	676.7311	-0.0592	0.0182	-0.0073	-0.0462	0.0165	0.9585
54.9486	8.1172	13.0903	-3.782	-4.8632	7.4451	14.9615	28.82	740.5564	-56.6341	299.9817	36.9261	667.0126	-0.0592	0.0182	-0.0073	-0.0462	0.0165	0.9585
54.9615	10.5822	34.8445	-6.2492	-12.8974	11.1752	39.8818	30.7526	733.3169	-57.6798	295.9275	36.7003	657.5815	-0.0592	0.0182	-0.0073	-0.0462	0.0165	0.9585
54.9744	12.1693	66.9891	-9.1119	-24.7309	15.0175	76.7556	32.8208	725.0995	-58.2923	291.5883	36.0847	647.377	-0.0592	0.0182	-0.0073	-0.0462	0.0165	0.9585
54.9874	11.7172	110.0384	-11.9513	-40.532	18.0567	126.2025	34.978	714.2391	-58.2199	286.316	34.873	634.9488	-0.0592	0.0182	-0.0073	-0.0462	0.0165	0.9585
55.0003	7.8047	162.3369	-14.0368	-59.6646	18.9354	186.3797	37.1172	698.7907	-57.2204	279.3505	32.9078	618.6157	-0.0592	0.0182	-0.0073	-0.0462	0.0165	0.9585
55.0132	-0.12254	219.5898	-14.3906	-80.5089	16.3289	252.3896	39.0276	676.9264	-55.0905	269.9753	30.1072	596.8465	-0.0592	0.0182	-0.0073	-0.0462	0.0165	0.9585
55.0261	-10.4614	275.3267	-11.9212	-100.6584	9.6119	316.6978	40.4871	647.3314	-51.753	257.6772	26.5103	568.5604	-0.0592	0.0182	-0.0073	-0.0462	0.0165	0.9585
55.0391	-20.7358	323.9797	-6.7025	-118.1001	-0.16652	372.5796	41.3037	609.5748	-47.2891	242.2862	22.2822	533.4441	-0.0592	0.0182	-0.0073	-0.0462	0.0165	0.9585
55.052	-29.3695	363.6029	0.062109	-132.1718	-11.0652	417.5315	41.3316	564.3098	-41.9575	224.0435	17.7072	492.1477	-0.0592	0.0182	-0.0073	-0.0462	0.0165	0.9585
55.0649	-35.5134	395.0058	7.3498	-143.2187	-21.5878	452.4094	40.5677	513.0183	-36.151	203.5164	13.1187	445.9981	-0.0592	0.0182	-0.0073	-0.0462	0.0165	0.9585
55.0779	-39.0031	420.2981	13.9902	-152.0657	-30.3739	479.647	39.0226	457.7331	-30.2341	181.4876	8.8047	396.798	-0.0592	0.0182	-0.0073	-0.0462	0.0165	0.9585
55.0908	-40.2069	441.866	19.3916	-159.6078	-36.8714	502.0782	36.7794	400.6916	-24.4802	158.8287	4.9534	346.4592	-0.0592	0.0182	-0.0073	-0.0462	0.0165	0.9585
